<svg id="Layer_3" data-name="Layer 3" xmlns="http://www.w3.org/2000/svg" viewBox="0 0 180 81.31"><defs><style>.cls-1{fill:#f7c853;}.cls-2,.cls-3{fill:none;stroke:#f7c853;stroke-miterlimit:10;}.cls-2{stroke-width:1.2px;}</style></defs><title>castle_burg_180ppppx_logo_s21</title><path class="cls-1" d="M73.58,58.05l3-.44a26.21,26.21,0,0,0,.32-3.37c.08-1.59.12-2.83.12-3.71V46.67c0-1.08,0-2.12-.08-3.12s-.14-1.78-.23-2.36l-3.11-.42v-.12H82.5a6.35,6.35,0,0,1,3,.62,3.57,3.57,0,0,1,1.58,1.54,4.35,4.35,0,0,1,.45,1.94,3.6,3.6,0,0,1-1.21,2.87,5,5,0,0,1-3,1.22v0a7.22,7.22,0,0,1,3.06.74,4.87,4.87,0,0,1,1.91,1.69A4.12,4.12,0,0,1,89,53.54a4.81,4.81,0,0,1-.49,2.06,4.31,4.31,0,0,1-1.81,1.81,7,7,0,0,1-3.51.76H73.58Zm3.8-17V57.71h.83V41.09Zm3.79,8.22a5.61,5.61,0,0,0-1.64.16c-.06.59-.1,1.53-.1,2.85,0,1.57.06,3.07.17,4.5a5.55,5.55,0,0,0,1.23.53,5.65,5.65,0,0,0,1.35.14,5.25,5.25,0,0,0,2.21-.43,3.42,3.42,0,0,0,1.48-1.31A4.12,4.12,0,0,0,84,49.86,6.6,6.6,0,0,0,81.17,49.31Zm0-8a5.28,5.28,0,0,0-1.39.14,29.8,29.8,0,0,0-.3,4.54,24.07,24.07,0,0,0,.07,2.45,3.73,3.73,0,0,0,1.43.22,5,5,0,0,0,2.13-.44,3.41,3.41,0,0,0,1.47-1.29,4.22,4.22,0,0,0,.13-3.88,3,3,0,0,0-1.29-1.27A4.81,4.81,0,0,0,81.15,41.31Zm.32-.37V41a4.85,4.85,0,0,1,2.22.53,3.25,3.25,0,0,1,1.37,1.35,4.18,4.18,0,0,1,.45,2,4,4,0,0,1-.4,1.85,3.27,3.27,0,0,1-1,1.25,3.65,3.65,0,0,1-1.29.62v.13a3.94,3.94,0,0,0,2.59-1.32,3.89,3.89,0,0,0,.93-2.6A4.21,4.21,0,0,0,86,43.15a3.28,3.28,0,0,0-.87-1.23,3.8,3.8,0,0,0-1.3-.77,5,5,0,0,0-1.66-.26C82,40.89,81.79,40.91,81.47,40.94Zm1.33,8.14v.09a5.83,5.83,0,0,1,2,.75,4.17,4.17,0,0,1,1.48,1.5,4.3,4.3,0,0,1,.56,2.24,4.55,4.55,0,0,1-.46,2,3.71,3.71,0,0,1-1.5,1.52,5.09,5.09,0,0,1-2.59.6v.1a2.76,2.76,0,0,0,.71.06,5.24,5.24,0,0,0,2.58-.61,4,4,0,0,0,1.61-1.58,4.27,4.27,0,0,0,.53-2.09,4.67,4.67,0,0,0-.56-2.33,3.94,3.94,0,0,0-1.67-1.61A5.87,5.87,0,0,0,82.8,49.08Z"/><path class="cls-1" d="M93.5,53.1V46.43c0-1.48-.09-3.24-.29-5.26l-2.5-.4v-.12h8.73v.12l-3.16.4c-.08.56-.15,1.23-.19,2S96,44.79,96,45.68s0,1.6,0,2.13v4.92a5,5,0,0,0,.71,2.83,3.81,3.81,0,0,0,1.88,1.51,7.13,7.13,0,0,0,2.58.45,5.48,5.48,0,0,0,3.77-1.22,5,5,0,0,0,1.37-3.95V47.22c0-.91,0-2-.09-3.22s-.15-2.19-.24-2.83l-3.15-.4v-.12h8.68v.12l-2.44.4a18.32,18.32,0,0,0-.26,2.59c-.06,1.21-.09,2.22-.09,3v5.81a7.33,7.33,0,0,1-.32,2.3,4.23,4.23,0,0,1-1,1.63,6,6,0,0,1-1,.79,5.69,5.69,0,0,1-1.3.56,9.82,9.82,0,0,1-1.73.34,18.77,18.77,0,0,1-2.31.11,13.76,13.76,0,0,1-3.91-.5,5.22,5.22,0,0,1-2.62-1.68A4.72,4.72,0,0,1,93.5,53.1ZM100.32,58v-.15a8.25,8.25,0,0,1-2.95-.68,4.46,4.46,0,0,1-2-1.72,5.18,5.18,0,0,1-.71-2.8V41.09h-.84v12a4.29,4.29,0,0,0,1.55,3.5A8.15,8.15,0,0,0,100.32,58Zm1.57-.15V58a8.41,8.41,0,0,0,2.44-.46,4.58,4.58,0,0,0,1.71-1,4.19,4.19,0,0,0,1-1.7,7.56,7.56,0,0,0,.34-2.35V41.09h-.84V52.44a5.93,5.93,0,0,1-1.1,3.78A5,5,0,0,1,101.89,57.88Z"/><path class="cls-1" d="M115.79,51v-3.7c0-1,0-2-.1-3.26s-.14-2.19-.24-2.89l-2.87-.42v-.12h7.87a6.37,6.37,0,0,1,3.57.89,5.06,5.06,0,0,1,1.85,2,5,5,0,0,1,.51,2A4,4,0,0,1,124.52,49a3.94,3.94,0,0,1-1.69.63v.05a3.86,3.86,0,0,1,1.35.86,9.18,9.18,0,0,1,1,1.18c.36.5.83,1.19,1.42,2.07s1.07,1.57,1.43,2.06a11,11,0,0,0,1,1.21,2.87,2.87,0,0,0,2,1v.12h-2.09a3.69,3.69,0,0,1-2.77-1.05,8.15,8.15,0,0,1-.81-1c-.27-.37-.69-1-1.27-1.83s-1.06-1.54-1.46-2.09a9.63,9.63,0,0,0-.94-1.17,2.86,2.86,0,0,0-.94-.69,3.34,3.34,0,0,0-1.25-.18,5.89,5.89,0,0,0-1.17.09,12.56,12.56,0,0,0-.07,1.43v2.22a31.9,31.9,0,0,0,.29,3.7l3,.41v.12h-8.89v-.12l2.81-.41c.12-.81.22-1.94.29-3.4S115.79,51.71,115.79,51Zm.3-9.92V57.71H117V41.12Zm2.08,4.45v2c0,.7,0,1.35.07,1.94a9.4,9.4,0,0,0,1.36.07,5.06,5.06,0,0,0,2.47-.52,3.15,3.15,0,0,0,1.34-1.37,4.21,4.21,0,0,0,.4-1.85,4.29,4.29,0,0,0-.39-1.83,4.46,4.46,0,0,0-1-1.42,4.52,4.52,0,0,0-1.37-.9,3.92,3.92,0,0,0-1.49-.32,5,5,0,0,0-1.09.1c-.07.46-.14,1.13-.2,2S118.17,45,118.17,45.57Zm1.2-4.65V41a4.84,4.84,0,0,1,2.74.79,4.52,4.52,0,0,1,1.61,1.86,5.17,5.17,0,0,1,.51,2.18,3.61,3.61,0,0,1-2.09,3.46l.08.05a3.65,3.65,0,0,0,2-1.33,3.84,3.84,0,0,0,.8-2.43,4.44,4.44,0,0,0-.43-2,4.31,4.31,0,0,0-1.17-1.49,5.18,5.18,0,0,0-1.64-.91,5.6,5.6,0,0,0-1.84-.31Zm3.11,10.59,2.6,3.77a8.7,8.7,0,0,0,1.66,1.89,2.8,2.8,0,0,0,1.72.59v-.12q-.95-.28-2.43-2.43l-2.08-3a7.68,7.68,0,0,0-1.25-1.48,3.05,3.05,0,0,0-1.44-.67l-.05.1A4.27,4.27,0,0,1,122.48,51.51Z"/><path class="cls-1" d="M151.56,51.58l-1.92.44a22.27,22.27,0,0,0-.25,2.24c-.07.91-.09,1.72-.08,2.44-.92.36-1.67.64-2.25.83A16.5,16.5,0,0,1,145,58a14.31,14.31,0,0,1-2.63.23,10.9,10.9,0,0,1-4.15-.74,8.43,8.43,0,0,1-3-2,8.18,8.18,0,0,1-1.73-2.79,8.76,8.76,0,0,1-.56-3.08,9.87,9.87,0,0,1,.62-3.51,8.92,8.92,0,0,1,1.83-3,8.45,8.45,0,0,1,3-2,10,10,0,0,1,4-.75h.54l.5,0,.8,0c1,.06,1.9.09,2.77.09s1.46,0,2-.07l.17,4h-.17l-.77-2.67c-.3-.08-.68-.16-1.13-.24s-1-.16-1.54-.23a17.77,17.77,0,0,0-1.85-.09,8.86,8.86,0,0,0-3.64.68,6.47,6.47,0,0,0-2.48,1.81,7.3,7.3,0,0,0-1.37,2.54,9.39,9.39,0,0,0-.43,2.83,8,8,0,0,0,.6,3.1A7.9,7.9,0,0,0,138,54.79a8,8,0,0,0,2.58,1.75,7.85,7.85,0,0,0,3.13.63c.28,0,.58,0,.88-.05l.94-.12,1.11-.18a10.2,10.2,0,0,0,.25-2.25,10.71,10.71,0,0,0-.25-2.57l-3.09-.42v-.14h8Zm-7.77-10.76v-.1c-.54,0-1-.07-1.45-.07a9.45,9.45,0,0,0-3.57.67,8.31,8.31,0,0,0-4.67,4.77,9.68,9.68,0,0,0-.65,3.58,8,8,0,0,0,4.31,7.16,10.13,10.13,0,0,0,4.9,1.13,13.65,13.65,0,0,0,1.44-.11v-.09a12.74,12.74,0,0,1-4.53-.72,7.79,7.79,0,0,1-4.73-4.74,9,9,0,0,1-.52-3,9.56,9.56,0,0,1,.59-3.4,7.63,7.63,0,0,1,1.73-2.7,7.83,7.83,0,0,1,2.86-1.76,11.14,11.14,0,0,1,3.87-.63Zm3.46,11.11v4.68l.8-.3V51.93Z"/><path class="cls-1" d="M76.83,30.46a10.25,10.25,0,0,1-3.29,4.46,8,8,0,0,1-4.86,1.52,9.93,9.93,0,0,1-4.46-1,10.85,10.85,0,0,1-3.65-3,14,14,0,0,1-2.46-4.69,20.05,20.05,0,0,1-.82-5.93,18.28,18.28,0,0,1,.78-5.41,14.42,14.42,0,0,1,2.26-4.5,10.66,10.66,0,0,1,3.6-3.1,9.59,9.59,0,0,1,4.46-1.07,8.34,8.34,0,0,1,4.92,1.48,10.75,10.75,0,0,1,3.49,4.37l-1.27.8a9.3,9.3,0,0,0-2.72-4.1,6.22,6.22,0,0,0-4-1.38,7.38,7.38,0,0,0-6.36,3.46c-1.6,2.3-2.39,5.37-2.39,9.2a18.1,18.1,0,0,0,2.44,9.91c1.63,2.54,3.73,3.82,6.31,3.82a6.13,6.13,0,0,0,4.1-1.51,10.41,10.41,0,0,0,2.79-4.44Z"/><path class="cls-1" d="M82.9,35.76h-1l4.17-14a2.2,2.2,0,0,1,.62-1.06,1.4,1.4,0,0,1,1-.37,1.33,1.33,0,0,1,1,.41,4.07,4.07,0,0,1,.78,1.4l4.89,13.63H92.1l-1.51-4.17H84.18Zm1.61-5.15h5.78l-2.53-7a3.26,3.26,0,0,0-.35-.79.41.41,0,0,0-.32-.19q-.36,0-.6.87a.81.81,0,0,1,0,.11Z"/><path class="cls-1" d="M99.91,35.76v-1h3.57a3.66,3.66,0,0,0,2.47-.71,2.67,2.67,0,0,0,.82-2.12,2.71,2.71,0,0,0-.52-1.76,3.29,3.29,0,0,0-1.69-1l-1.67-.53a5.31,5.31,0,0,1-2.54-1.45,3.39,3.39,0,0,1-.87-2.33,3.83,3.83,0,0,1,1.28-3,5,5,0,0,1,3.42-1.13h3.32v1H104a2.71,2.71,0,0,0-1.9.64,2.31,2.31,0,0,0-.68,1.78,2.57,2.57,0,0,0,.53,1.69,3.59,3.59,0,0,0,1.74,1l1.41.44a6.26,6.26,0,0,1,2.81,1.62,3.75,3.75,0,0,1,.86,2.55,3.87,3.87,0,0,1-1.37,3.18,6.23,6.23,0,0,1-4,1.1Z"/><path class="cls-1" d="M117.6,35.76v-14h-4v-1h10.12v1h-4.07v14Z"/><path class="cls-1" d="M129.77,11.27h2V33.59a1.17,1.17,0,0,0,.3.95,2.65,2.65,0,0,0,1.43.24H135v1h-2.43a3.49,3.49,0,0,1-2.24-.5,3.16,3.16,0,0,1-.53-2.2Z"/><path class="cls-1" d="M140.78,23.46a3.1,3.1,0,0,1,.54-2.18,3.41,3.41,0,0,1,2.27-.52h6.48v1h-5.51a2.66,2.66,0,0,0-1.45.24,1.09,1.09,0,0,0-.29.91v4.41h5.81v.93h-5.81v5.35a1.21,1.21,0,0,0,.3.95,2.74,2.74,0,0,0,1.44.24h5.37v1h-6.34a3.48,3.48,0,0,1-2.27-.51,3.08,3.08,0,0,1-.54-2.19Z"/><path class="cls-1" d="M59,62c4-.21,8.1-.34,12.16-.5H144c4.05.17,8.1.3,12.16.5-4.06.2-8.11.33-12.16.5H71.11C67.05,62.33,63,62.2,59,62Z"/><path class="cls-1" d="M18.86,50.65c-.38,1.3-.83,2.59-1.3,3.87S16.44,57,15.85,58.23c-1.18,2.45-2.47,4.85-3.85,7.2a78.66,78.66,0,0,1-4.51,6.81c-.83,1.08-1.65,2.17-2.56,3.19S3,77.33,2,78.25c.85-1.06,1.78-2,2.57-3.15S6.27,73,7.09,71.94a78.48,78.48,0,0,0,4.48-6.77Q13.63,61.68,15.4,58c.59-1.22,1.16-2.45,1.7-3.69S18.29,51.88,18.86,50.65Z"/><path class="cls-1" d="M0,81.31A93.71,93.71,0,0,0,14.09,60.44a65.81,65.81,0,0,0,7.26-23.89A51.69,51.69,0,0,0,21,24.06a53.1,53.1,0,0,0-3.34-12A56.5,56.5,0,0,0,15,6.33c-.5-.92-1-1.83-1.55-2.72l-.41-.67-.21-.34a1.12,1.12,0,0,1-.18-.73,1,1,0,0,1,.43-.7,1.67,1.67,0,0,1,.5-.25,3.16,3.16,0,0,1,1-.16l1.63.13a5.78,5.78,0,0,1,1.74.27,1.79,1.79,0,0,1,.82.74,2.94,2.94,0,0,1,.32.93,12.3,12.3,0,0,1,.13,1.65,4.5,4.5,0,0,0,.22,1.36,1.71,1.71,0,0,0,.13.23c.06,0,.09.1.17.16a1.66,1.66,0,0,0,.53.27A1.3,1.3,0,0,0,22,5.58a4.48,4.48,0,0,0,0-1.41A5.07,5.07,0,0,1,22,2.4,2.64,2.64,0,0,1,23.19.83,2.73,2.73,0,0,1,25.1.5a2.82,2.82,0,0,1,1.67.94,3.5,3.5,0,0,1,.75,1.7,14.81,14.81,0,0,1,.11,1.6,2.34,2.34,0,0,0,.47,1.18,1.47,1.47,0,0,0,1,.59,2.19,2.19,0,0,0,1.18-.22c.57-.25.53-1.36.52-2.43a4,4,0,0,1,.42-1.77A2.55,2.55,0,0,1,32.63.78a2.43,2.43,0,0,1,1-.14,2.88,2.88,0,0,1,1,.24,2.41,2.41,0,0,1,1.23,1.54c.36,1.15.22,2.28.59,3a2,2,0,0,0,.79.93,1.18,1.18,0,0,0,1,0c.67-.25,1-1.24,1.06-2.18a7.5,7.5,0,0,1,.17-1.69A2.34,2.34,0,0,1,40.69,1,3.6,3.6,0,0,1,42.5.67a10,10,0,0,1,1.67.12,2.4,2.4,0,0,1,.5.15.82.82,0,0,1,.42.49,1.19,1.19,0,0,1,0,.4,3.31,3.31,0,0,1-.28.93c-.26.52-.41,1-.62,1.44l-.57,1.44-.45,1.5c-.29,1-.61,2-.88,3A60.1,60.1,0,0,0,40.75,35,40.13,40.13,0,0,0,44.41,47a38.81,38.81,0,0,0,7.34,10.21,39.19,39.19,0,0,1-7.83-10,41.16,41.16,0,0,1-4.25-12A61.34,61.34,0,0,1,41.25,9.88c.28-1,.6-2,.9-3.06l.46-1.53.6-1.51c.19-.48.41-1,.62-1.47A2.08,2.08,0,0,0,44,1.74s0,0,0,0a.36.36,0,0,0,.18.2A1.11,1.11,0,0,0,44,1.87a8.47,8.47,0,0,0-1.48-.1A2.6,2.6,0,0,0,41.19,2c-.7.31-.78,1.22-.8,2.32A4.91,4.91,0,0,1,40,6a2.61,2.61,0,0,1-1.35,1.41,2.27,2.27,0,0,1-2-.11,3.07,3.07,0,0,1-1.25-1.43A5.07,5.07,0,0,1,35,4.21a7.64,7.64,0,0,0-.25-1.46,1.27,1.27,0,0,0-.65-.87A1.58,1.58,0,0,0,33,1.81a2.14,2.14,0,0,0-1.12,2.07,13.34,13.34,0,0,1-.05,1.64,2.69,2.69,0,0,1-.27.94,1.87,1.87,0,0,1-.76.79,3.23,3.23,0,0,1-1.88.35,2.65,2.65,0,0,1-1.68-1,3.53,3.53,0,0,1-.69-1.72c-.07-.65,0-1.1-.1-1.55A1.91,1.91,0,0,0,24.9,1.58a1.56,1.56,0,0,0-1.82,1.1c-.22.78.22,1.85,0,3.13a2.31,2.31,0,0,1-1.2,1.59,2.61,2.61,0,0,1-1.95.15,3,3,0,0,1-.88-.43,2.87,2.87,0,0,1-.39-.39,3,3,0,0,1-.26-.46,5.43,5.43,0,0,1-.31-1.74c0-1-.07-2.18-.63-2.37A6.16,6.16,0,0,0,16.09,2l-1.53-.12A2.51,2.51,0,0,0,14,2c-.2,0-.25.19-.19,0s0,0,0,0l.2.34.42.68C15,4,15.48,4.88,16,5.81a59.61,59.61,0,0,1,2.72,5.78,54.64,54.64,0,0,1,3.41,12.3,53,53,0,0,1,.32,12.77A66.91,66.91,0,0,1,15.07,61,90,90,0,0,1,0,81.31Z"/><path class="cls-2" d="M19.55,15.65a52.74,52.74,0,0,0,21.31,0"/><rect class="cls-3" x="21.04" y="9.98" width="3.85" height="2.85" rx="1.42" transform="translate(11.56 34.37) rotate(-90)"/><rect class="cls-3" x="27.85" y="10.28" width="3.85" height="2.85" rx="1.42" transform="translate(18.08 41.48) rotate(-90)"/><rect class="cls-3" x="34.67" y="9.98" width="3.85" height="2.85" rx="1.42" transform="translate(25.18 47.99) rotate(-90)"/><path class="cls-1" d="M41.92,42.51c1.09,2,2.1,4,3.12,5.94l1.54,3a19.66,19.66,0,0,0,1.76,2.83,11.64,11.64,0,0,1-2.09-2.64c-.61-1-1.14-1.94-1.66-2.94A50.91,50.91,0,0,1,41.92,42.51Z"/></svg>